<?xml version="1.0" encoding="UTF-8" standalone="no"?><!DOCTYPE svg PUBLIC "-//W3C//DTD SVG 1.1//EN" "http://www.w3.org/Graphics/SVG/1.1/DTD/svg11.dtd"><svg width="100%" height="100%" viewBox="0 0 6150 2409" version="1.1" xmlns="http://www.w3.org/2000/svg" xmlns:xlink="http://www.w3.org/1999/xlink" xml:space="preserve" xmlns:serif="http://www.serif.com/" style="fill-rule:evenodd;clip-rule:evenodd;stroke-linejoin:round;stroke-miterlimit:2;"><g><rect x="2550.73" y="459.501" width="88.292" height="774.208" style="fill:#fff;fill-rule:nonzero;"/><path d="M2923.27,845.959c0,-216.916 181.792,-400.625 395.583,-400.625c215.042,0 394.25,182.334 394.25,400.625c0,218.292 -180.458,400.709 -394.25,400.709c-212.542,1.208 -395.583,-182.375 -395.583,-400.709Zm701.542,0c0,-172 -139.5,-318.416 -305.959,-318.416c-166.458,0 -307.167,146.291 -307.167,318.416c0,173.417 140.75,319.667 307.167,319.667c166.417,0 305.959,-146.25 305.959,-319.667Z" style="fill:#fff;fill-rule:nonzero;"/><path d="M4166.23,542.959l-259.833,0l0,-83.333l606.792,0l0,83.333l-259.917,0l0,690.75l-88.292,0l1.25,-690.75Z" style="fill:#fff;fill-rule:nonzero;"/><path d="M4976.52,567.334l-293.125,666.375l-95.833,0l321.124,-730.708c11.508,-26.494 37.782,-43.703 66.667,-43.667c28.871,-0.241 55.168,17.059 66.375,43.667l321.333,730.542l-95.833,0l-290.708,-666.209Z" style="fill:#fff;fill-rule:nonzero;"/><path d="M1696.19,389.293c39.311,-0.137 71.583,-32.521 71.583,-71.833c0,-39.407 -32.427,-71.834 -71.834,-71.834c-39.406,0 -71.833,32.427 -71.833,71.833c0.046,39.421 32.496,71.834 71.917,71.834c0.055,0 0.111,0 0.167,0Z" style="fill:#fff;fill-rule:nonzero;"/><path d="M1777.19,1403.92c39.327,-0.114 71.624,-32.505 71.624,-71.833c0,-39.407 -32.426,-71.834 -71.833,-71.834c-39.406,0 -71.833,32.427 -71.833,71.834c0,0.027 0,0.055 0,0.083c0.068,39.382 32.492,71.75 71.875,71.75c0.055,0 0.111,0 0.167,0Z" style="fill:#fff;fill-rule:nonzero;"/><path d="M1716.73,568.876c33.028,-0.068 60.167,-27.264 60.167,-60.291c0,-33.076 -27.217,-60.292 -60.292,-60.292c-33.075,0 -60.291,27.216 -60.291,60.291c0.045,33.105 27.311,60.315 60.416,60.292Z" style="fill:#fff;fill-rule:nonzero;"/><path d="M1877.52,591.959c33.012,-0.091 60.125,-27.279 60.125,-60.291c0,-33.075 -27.217,-60.292 -60.292,-60.292c-33.075,0 -60.291,27.217 -60.292,60.292c0.023,33.082 27.252,60.292 60.334,60.292c0.041,0 0.083,-0.001 0.125,-0.001Z" style="fill:#fff;fill-rule:nonzero;"/><path d="M1696.19,721.543c28.113,-0.069 51.208,-23.22 51.208,-51.333c0,-28.161 -23.173,-51.334 -51.334,-51.334c-28.16,0 -51.333,23.173 -51.333,51.333c0,0 0,0 0,0.001c0,28.16 23.173,51.333 51.333,51.333c0.042,0 0.084,0 0.125,0Z" style="fill:#fff;fill-rule:nonzero;"/><path d="M1856.9,743.334c28.074,-0.091 51.125,-23.216 51.125,-51.291c0,-28.138 -23.154,-51.292 -51.292,-51.292c-28.122,0 -51.269,23.128 -51.292,51.25c0.023,28.168 23.208,51.333 51.375,51.333c0.028,0 0.056,0 0.084,0Z" style="fill:#fff;fill-rule:nonzero;"/><path d="M1985.48,793.334c28.091,-0.068 51.167,-23.201 51.167,-51.291c0,-28.138 -23.154,-51.292 -51.292,-51.292c-28.138,0 -51.292,23.154 -51.292,51.292c0,0.014 0,0.028 0.001,0.041c0.045,28.13 23.204,51.25 51.333,51.25c0.028,0 0.055,0 0.083,0Z" style="fill:#fff;fill-rule:nonzero;"/><path d="M1809.31,866.459c24.609,-0.045 44.833,-20.307 44.833,-44.916c0,-24.641 -20.276,-44.917 -44.917,-44.917c-24.64,0 -44.917,20.276 -44.917,44.917c0,0.014 0,0.028 0.001,0.041c0.045,24.648 20.352,44.898 44.999,44.875Z" style="fill:#fff;fill-rule:nonzero;"/><path d="M1648.56,844.668c24.624,-0.023 44.874,-20.292 44.874,-44.917c0,-24.64 -20.276,-44.917 -44.916,-44.917c-24.641,0 -44.917,20.277 -44.917,44.917c0,0.014 0,0.028 0,0.042c0.046,24.632 20.327,44.875 44.958,44.875Z" style="fill:#fff;fill-rule:nonzero;"/><path d="M1939.19,916.501c24.609,-0.046 44.833,-20.307 44.833,-44.917c0,-24.64 -20.276,-44.916 -44.917,-44.916c-24.64,0 -44.916,20.276 -44.917,44.916c0.023,24.648 20.311,44.917 44.959,44.917c0.014,0 0.028,0 0.041,0Z" style="fill:#fff;fill-rule:nonzero;"/><path d="M1745.02,960.126c21.089,-0.046 38.416,-17.411 38.416,-38.5c0,-21.12 -17.379,-38.5 -38.5,-38.5c-21.12,0 -38.499,17.38 -38.499,38.5c0.045,21.135 17.448,38.5 38.583,38.5Z" style="fill:#fff;fill-rule:nonzero;"/><path d="M1875.06,1008.88c21.104,-0.023 38.458,-17.395 38.458,-38.5c0,-21.12 -17.38,-38.5 -38.5,-38.5c-21.121,0 -38.5,17.38 -38.5,38.5c0.045,21.119 17.423,38.477 38.542,38.5Z" style="fill:#fff;fill-rule:nonzero;"/><path d="M1585.56,937.001c21.088,-0.046 38.416,-17.411 38.416,-38.5c0,-21.12 -17.379,-38.5 -38.5,-38.5c-21.12,0 -38.5,17.38 -38.5,38.5c0,0 0,0 0,0c0,21.121 17.38,38.5 38.5,38.5c0.028,0 0.056,0 0.083,0Z" style="fill:#fff;fill-rule:nonzero;"/><path d="M1674.31,1022.96c17.568,-0.045 31.999,-14.514 31.999,-32.083c0,-17.6 -14.482,-32.083 -32.083,-32.083c-17.6,0 -32.083,14.483 -32.083,32.083c0.023,17.608 14.517,32.083 32.125,32.083c0.014,0 0.028,0 0.042,0Z" style="fill:#fff;fill-rule:nonzero;"/><path d="M1729.56,1111.33c15.458,-0.022 28.166,-12.749 28.166,-28.208c0,-15.475 -12.734,-28.208 -28.208,-28.208c-15.475,0 -28.208,12.733 -28.208,28.208c-0.001,0 -0.001,0 -0.001,0c0,15.475 12.734,28.208 28.209,28.208c0.014,0 0.028,0 0.042,0Z" style="fill:#fff;fill-rule:nonzero;"/><path d="M1661.44,1129.46c12.685,0 23.125,-10.439 23.125,-23.125c0,-12.686 -10.44,-23.125 -23.125,-23.125c-12.686,0 -23.125,10.439 -23.125,23.125c0.045,12.669 10.456,23.08 23.125,23.125Z" style="fill:#fff;fill-rule:nonzero;"/><path d="M1600.98,1062.71c15.443,-0.045 28.125,-12.765 28.125,-28.208c0,-15.474 -12.734,-28.208 -28.208,-28.208c-15.475,0 -28.208,12.733 -28.208,28.208c-0.001,0 -0.001,0 -0.001,0c0,15.475 12.734,28.209 28.209,28.209c0.028,0 0.055,-0.001 0.083,-0.001Z" style="fill:#fff;fill-rule:nonzero;"/><path d="M1513.56,1001.17c17.568,-0.046 31.999,-14.515 31.999,-32.084c0,-17.6 -14.482,-32.083 -32.083,-32.083c-17.6,0 -32.083,14.483 -32.083,32.083c0.023,17.608 14.517,32.084 32.125,32.084c0.014,0 0.028,0 0.042,0Z" style="fill:#fff;fill-rule:nonzero;"/><path d="M1512.27,760.001c17.569,-0.046 32,-14.514 32,-32.083c0,-17.601 -14.483,-32.084 -32.084,-32.084c-17.6,0 -32.083,14.483 -32.083,32.084c0.023,17.607 14.518,32.083 32.125,32.083c0.014,0 0.028,0 0.042,0Z" style="fill:#fff;fill-rule:nonzero;"/><path d="M1526.4,647.126c15.482,-0.023 28.208,-12.768 28.208,-28.25c0,-15.497 -12.752,-28.25 -28.25,-28.25c-15.497,0 -28.25,12.753 -28.25,28.25c0,0.014 0,0.028 0,0.042c0.046,15.489 12.803,28.208 28.292,28.208Z" style="fill:#fff;fill-rule:nonzero;"/><path d="M1557.27,554.793c12.686,0 23.125,-10.439 23.125,-23.125c0,-12.686 -10.439,-23.125 -23.125,-23.125c-12.686,0 -23.125,10.439 -23.125,23.125c0.045,12.668 10.456,23.079 23.125,23.125Z" style="fill:#fff;fill-rule:nonzero;"/><path d="M1503.23,511.334c15.459,-0.022 28.167,-12.749 28.167,-28.208c0,-15.475 -12.734,-28.208 -28.209,-28.208c-15.474,0 -28.208,12.733 -28.208,28.208c0,0 0,0 0,0c0,15.475 12.734,28.208 28.208,28.208c0.014,0 0.028,0 0.042,0Z" style="fill:#fff;fill-rule:nonzero;"/><path d="M1802.9,1071.71c17.569,-0.045 32,-14.514 32,-32.083c0,-17.6 -14.483,-32.083 -32.084,-32.083c-17.6,0 -32.083,14.483 -32.083,32.083c0.023,17.608 14.518,32.083 32.125,32.083c0.014,0 0.028,0 0.042,0Z" style="fill:#fff;fill-rule:nonzero;"/><path d="M1429.98,473.834c17.553,-0.068 31.958,-14.53 31.958,-32.083c0,-17.6 -14.482,-32.083 -32.083,-32.083c-17.6,0 -32.083,14.483 -32.083,32.083c0.023,17.608 14.517,32.083 32.125,32.083c0.028,0 0.055,0 0.083,0Z" style="fill:#fff;fill-rule:nonzero;"/><path d="M1451.81,609.959c17.568,-0.045 31.999,-14.514 31.999,-32.083c0,-17.6 -14.482,-32.083 -32.083,-32.083c-17.6,0 -32.083,14.483 -32.083,32.083c0.023,17.608 14.517,32.083 32.125,32.083c0.014,0 0.028,0 0.042,0Z" style="fill:#fff;fill-rule:nonzero;"/><path d="M1415.81,739.459c21.066,-0.045 38.374,-17.392 38.374,-38.458c0,-21.097 -17.36,-38.458 -38.458,-38.458c-21.097,0 -38.458,17.36 -38.458,38.458c0.045,21.112 17.43,38.458 38.542,38.458Z" style="fill:#fff;fill-rule:nonzero;"/><path d="M1298.77,739.459c24.609,-0.045 44.833,-20.307 44.833,-44.916c0,-24.641 -20.276,-44.917 -44.917,-44.917c-24.64,0 -44.916,20.276 -44.916,44.917c0,0.041 0,0.083 0,0.125c0.068,24.625 20.375,44.837 45,44.791Z" style="fill:#fff;fill-rule:nonzero;"/><path d="M1162.56,770.293c28.113,-0.069 51.208,-23.22 51.208,-51.333c0,-28.161 -23.173,-51.334 -51.334,-51.334c-28.16,0 -51.333,23.173 -51.333,51.333c0.046,28.191 23.268,51.357 51.458,51.334Z" style="fill:#fff;fill-rule:nonzero;"/><path d="M1013.27,843.376c33.028,-0.068 60.166,-27.264 60.166,-60.291c0,-33.076 -27.216,-60.292 -60.291,-60.292c-33.075,0 -60.292,27.216 -60.292,60.291c0.046,33.105 27.312,60.315 60.417,60.292Z" style="fill:#fff;fill-rule:nonzero;"/><path d="M858.979,966.543c39.328,-0.114 71.625,-32.505 71.625,-71.833c0,-39.407 -32.427,-71.834 -71.833,-71.834c-39.391,0 -71.81,32.401 -71.834,71.792c0.046,39.443 32.515,71.875 71.959,71.875c0.028,0 0.055,0 0.083,0Z" style="fill:#fff;fill-rule:nonzero;"/><path d="M952.854,693.293c33.012,-0.092 60.125,-27.28 60.125,-60.292c0,-33.075 -27.216,-60.291 -60.292,-60.291c-33.074,0 -60.291,27.216 -60.291,60.291c0.023,33.082 27.251,60.292 60.333,60.292c0.042,0 0.083,0 0.125,0Z" style="fill:#fff;fill-rule:nonzero;"/><path d="M1101.98,620.209c28.145,-0.022 51.292,-23.188 51.292,-51.333c0,-28.161 -23.173,-51.333 -51.334,-51.333c-28.16,0 -51.333,23.172 -51.333,51.333c0.023,28.168 23.207,51.333 51.375,51.333Z" style="fill:#fff;fill-rule:nonzero;"/><path d="M1080.15,484.209c28.129,-0.045 51.25,-23.204 51.25,-51.333c0,-28.161 -23.173,-51.333 -51.334,-51.333c-28.16,0 -51.333,23.172 -51.333,51.333c0,0.014 0,0.028 0,0.042c0.046,28.167 23.249,51.314 51.417,51.291Z" style="fill:#fff;fill-rule:nonzero;"/><path d="M1216.48,453.418c24.555,-0.091 44.708,-20.32 44.708,-44.875c0,-24.618 -20.257,-44.875 -44.875,-44.875c-24.617,0 -44.874,20.257 -44.875,44.875c0.023,24.625 20.292,44.875 44.917,44.875c0.042,0 0.083,0 0.125,0Z" style="fill:#fff;fill-rule:nonzero;"/><path d="M1333.4,453.418c21.066,-0.046 38.375,-17.392 38.375,-38.459c0,-21.097 -17.361,-38.458 -38.459,-38.458c-21.097,0 -38.458,17.361 -38.458,38.458c0.046,21.112 17.43,38.459 38.542,38.459Z" style="fill:#fff;fill-rule:nonzero;"/><path d="M1355.35,589.376c21.035,-0.091 38.292,-17.423 38.292,-38.458c0,-21.098 -17.361,-38.458 -38.459,-38.458c-21.097,0 -38.458,17.36 -38.458,38.458c0.046,21.112 17.43,38.458 38.542,38.458c0.028,0 0.055,0 0.083,0Z" style="fill:#fff;fill-rule:nonzero;"/><path d="M1238.35,590.501c24.593,-0.068 44.792,-20.323 44.792,-44.916c0,-24.641 -20.276,-44.917 -44.917,-44.917c-24.64,0 -44.917,20.276 -44.917,44.917c0,0.013 0,0.027 0,0.041c0.046,24.632 20.327,44.875 44.959,44.875c0.028,0 0.055,0 0.083,0Z" style="fill:#fff;fill-rule:nonzero;"/><path d="M1111.02,931.876c12.631,-0.046 23,-10.451 23,-23.083c0,-12.663 -10.42,-23.083 -23.084,-23.083c-12.663,0 -23.083,10.42 -23.083,23.083c0.023,12.67 10.455,23.083 23.125,23.083c0.014,0 0.028,0 0.042,0Z" style="fill:#fff;fill-rule:nonzero;"/><path d="M1203.65,920.334c15.427,-0.068 28.083,-12.78 28.083,-28.208c0,-15.474 -12.734,-28.208 -28.208,-28.208c-15.475,0 -28.208,12.734 -28.208,28.208c0.045,15.505 12.828,28.231 28.333,28.208Z" style="fill:#fff;fill-rule:nonzero;"/><path d="M1305.19,881.876c17.584,-0.023 32.041,-14.499 32.041,-32.083c0,-17.601 -14.483,-32.084 -32.083,-32.084c-17.601,0 -32.084,14.483 -32.084,32.084c0,0.014 0,0.027 0.001,0.041c0.022,17.585 14.498,32.042 32.083,32.042c0.014,0 0.028,0 0.042,0Z" style="fill:#fff;fill-rule:nonzero;"/><path d="M1329.65,984.459c21.05,-0.068 38.333,-17.407 38.333,-38.458c0,-21.097 -17.361,-38.458 -38.458,-38.458c-21.098,0 -38.458,17.361 -38.458,38.458c0.022,21.105 17.395,38.458 38.499,38.458c0.028,0 0.056,0 0.084,0Z" style="fill:#fff;fill-rule:nonzero;"/><path d="M1206.19,1008.83c17.584,-0.022 32.041,-14.498 32.041,-32.083c0,-17.6 -14.483,-32.083 -32.083,-32.083c-17.601,0 -32.083,14.483 -32.083,32.083c0.022,17.608 14.517,32.083 32.125,32.083Z" style="fill:#fff;fill-rule:nonzero;"/><path d="M1096.85,1007.58c15.498,0 28.25,-12.752 28.25,-28.25c0,-15.497 -12.752,-28.25 -28.25,-28.25c-15.497,0 -28.25,12.753 -28.25,28.25c0.023,15.489 12.761,28.228 28.25,28.25Z" style="fill:#fff;fill-rule:nonzero;"/><path d="M1098.15,1096.08c17.569,-0.045 32,-14.514 32,-32.083c0,-17.6 -14.483,-32.083 -32.084,-32.083c-17.6,0 -32.083,14.483 -32.083,32.083c0.023,17.608 14.518,32.083 32.125,32.083c0.014,0 0.028,0 0.042,0Z" style="fill:#fff;fill-rule:nonzero;"/><path d="M1229.23,1112.75c21.105,-0.023 38.458,-17.395 38.458,-38.5c0,-21.12 -17.379,-38.5 -38.5,-38.5c-21.12,0 -38.499,17.38 -38.5,38.5c0.023,21.128 17.415,38.5 38.542,38.5Z" style="fill:#fff;fill-rule:nonzero;"/><path d="M1382.4,1096.08c0.028,0 0.055,0 0.083,0c24.641,0 44.917,-20.276 44.917,-44.916c0,-24.641 -20.276,-44.917 -44.917,-44.917c-24.64,0 -44.916,20.276 -44.917,44.917c0.023,24.6 20.233,44.848 44.834,44.916Z" style="fill:#fff;fill-rule:nonzero;"/><path d="M1472.4,1207.67c28.097,-0.092 51.166,-23.236 51.166,-51.333c0,-28.161 -23.172,-51.334 -51.333,-51.334c-28.16,0 -51.333,23.173 -51.333,51.334c0,0.013 0,0.027 0,0.041c0.045,28.152 23.223,51.292 51.375,51.292c0.041,0 0.083,0 0.125,0Z" style="fill:#fff;fill-rule:nonzero;"/><path d="M1283.4,1223.04c24.593,-0.069 44.791,-20.324 44.791,-44.917c0,-24.64 -20.276,-44.916 -44.916,-44.916c-24.594,0 -44.848,20.198 -44.917,44.791c0,0.028 0,0.056 0,0.083c0,24.664 20.295,44.959 44.958,44.959c0.028,0 0.056,0 0.084,0Z" style="fill:#fff;fill-rule:nonzero;"/><path d="M1176.6,1310.29c24.609,-0.046 44.833,-20.308 44.833,-44.917c0,-24.64 -20.276,-44.917 -44.916,-44.917c-24.641,0 -44.917,20.277 -44.917,44.917c0,0.042 0,0.083 0,0.125c0.091,24.616 20.384,44.815 45,44.792Z" style="fill:#fff;fill-rule:nonzero;"/><path d="M1265.35,1423.17c28.113,-0.069 51.208,-23.22 51.208,-51.333c0,-28.161 -23.172,-51.334 -51.333,-51.334c-28.16,0 -51.333,23.173 -51.333,51.334c0,0.013 0,0.027 0,0.041c0.023,28.145 23.188,51.292 51.333,51.292c0.042,0 0.083,0 0.125,0Z" style="fill:#fff;fill-rule:nonzero;"/><path d="M1501.98,1443.71c0.014,0 0.028,0 0.042,0c33.075,0 60.291,-27.216 60.291,-60.291c0,-33.075 -27.216,-60.292 -60.291,-60.292c-33.075,0 -60.292,27.217 -60.292,60.292c0.046,33.042 27.208,60.223 60.25,60.291Z" style="fill:#fff;fill-rule:nonzero;"/><path d="M1372.1,1335.92c28.113,-0.069 51.208,-23.22 51.208,-51.333c0,-28.161 -23.172,-51.334 -51.333,-51.334c-28.16,0 -51.333,23.173 -51.333,51.334c0,0.013 0,0.027 0,0.041c0.045,28.152 23.223,51.292 51.375,51.292c0.028,0 0.055,0 0.083,0Z" style="fill:#fff;fill-rule:nonzero;"/><path d="M1600.98,1315.5c33.028,-0.068 60.167,-27.264 60.167,-60.291c0,-33.076 -27.217,-60.292 -60.292,-60.292c-33.075,0 -60.291,27.216 -60.291,60.291c0.045,33.105 27.311,60.315 60.416,60.292Z" style="fill:#fff;fill-rule:nonzero;"/><path d="M1122.6,1200c21.073,-0.068 38.375,-17.427 38.375,-38.5c0,-21.12 -17.379,-38.5 -38.5,-38.5c-21.12,0 -38.5,17.38 -38.5,38.5c0.023,21.128 17.414,38.5 38.542,38.5c0.028,0 0.055,0 0.083,0Z" style="fill:#fff;fill-rule:nonzero;"/></g><text x="1267.68px" y="1960.75px" style="font-family:'ArialMT', 'Arial', sans-serif;font-size:400px;fill:#fff;">D | <tspan x="1860.64px 2105.37px 2216.5px " y="1960.75px 1960.75px 1960.75px ">A |</tspan> CH  - Contest</text></svg>